<svg version="1.1" id="Layer_1" xmlns="http://www.w3.org/2000/svg" xmlns:xlink="http://www.w3.org/1999/xlink" x="0px" y="0px"
	 width="100%" viewBox="0 0 1080 1080" enable-background="new 0 0 1080 1080" xml:space="preserve">
<path fill="#FFFFFF" opacity="1.000000" stroke="none" 
	d="
M1.000000,409.000000 
	C1.000000,272.682343 1.000000,136.864685 1.000000,1.023512 
	C360.942780,1.023512 720.885559,1.023512 1080.914185,1.023512 
	C1080.914185,360.901215 1080.914185,720.802490 1080.914185,1080.851807 
	C721.000061,1080.851807 361.000031,1080.851807 1.000000,1080.851807 
	C1.000000,857.114014 1.000000,633.307007 1.000000,409.000000 
M539.500000,108.997444 
	C390.021271,108.996979 240.542542,108.995468 91.063820,108.997765 
	C76.997124,108.997978 67.353180,118.685936 67.352921,132.833099 
	C67.349060,342.303925 67.350136,551.774719 67.350044,761.245544 
	C67.350044,763.017212 67.350037,764.788879 67.350037,766.756042 
	C384.249146,766.756042 700.437988,766.756042 1017.122375,766.756042 
	C1017.122375,764.281006 1017.122437,762.153259 1017.122437,760.025513 
	C1017.122498,551.721191 1017.120544,343.416901 1017.126465,135.112610 
	C1017.126953,118.226837 1007.897827,108.996063 990.937195,108.996094 
	C840.791443,108.996361 690.645752,108.996948 539.500000,108.997444 
M391.500000,833.966553 
	C615.554565,833.966553 839.609192,833.966553 1063.525146,833.966553 
	C1063.525146,811.479614 1063.525146,789.928894 1063.525146,768.531006 
	C715.233032,768.531006 367.415497,768.531006 19.338840,768.531006 
	C19.338840,790.273132 19.338840,811.823608 19.338840,833.966492 
	C143.284668,833.966492 266.892334,833.966492 391.500000,833.966553 
z"/>
<path fill="#3B566B" opacity="1.000000" stroke="none" 
	d="
M540.000000,108.997444 
	C690.645752,108.996948 840.791443,108.996361 990.937195,108.996094 
	C1007.897827,108.996063 1017.126953,118.226837 1017.126465,135.112610 
	C1017.120544,343.416901 1017.122498,551.721191 1017.122437,760.025513 
	C1017.122437,762.153259 1017.122375,764.281006 1017.122375,766.756042 
	C700.437988,766.756042 384.249146,766.756042 67.350037,766.756042 
	C67.350037,764.788879 67.350044,763.017212 67.350044,761.245544 
	C67.350136,551.774719 67.349060,342.303925 67.352921,132.833099 
	C67.353180,118.685936 76.997124,108.997978 91.063820,108.997765 
	C240.542542,108.995468 390.021271,108.996979 540.000000,108.997444 
M391.966522,715.007263 
	C420.641418,714.991516 449.316284,714.975708 478.910828,715.165039 
	C521.995544,715.754944 565.080627,716.317566 608.164673,716.952454 
	C619.948120,717.126099 631.642517,716.265564 643.398438,715.505310 
	C664.203735,714.159912 685.149170,714.982666 706.735840,715.395935 
	C708.661316,715.714172 710.586609,716.309692 712.512268,716.310791 
	C794.161438,716.357239 875.810669,716.352905 957.459839,716.336548 
	C959.204041,716.336243 960.948181,716.123657 963.039673,715.987427 
	C963.039673,667.932861 963.039673,620.464478 963.613892,572.395020 
	C963.731628,570.412903 963.952087,568.430725 963.952332,566.448608 
	C963.968506,433.309937 963.967102,300.171265 963.966919,167.032593 
	C963.966919,158.035187 963.966248,158.034073 955.178711,158.034058 
	C722.780945,158.033859 490.383179,158.033890 257.985413,158.033890 
	C214.494553,158.033890 171.003448,158.103622 127.513214,157.937271 
	C122.602341,157.918488 120.890915,159.132523 120.895401,164.329971 
	C121.024254,313.631805 120.996040,462.933777 121.038322,612.235718 
	C121.038818,613.984314 121.628990,615.732849 121.872276,618.498535 
	C121.867874,649.301086 121.861763,680.103638 121.860466,710.906189 
	C121.860191,717.353760 121.868370,717.359741 128.419098,717.359863 
	C214.000244,717.361206 299.581390,717.361023 385.162537,717.358826 
	C386.493988,717.358765 387.910583,717.600281 389.126373,717.217529 
	C389.913879,716.969482 390.407928,715.789307 391.966522,715.007263 
z"/>
<path fill="#CCCCCC" opacity="1.000000" stroke="none" 
	d="
M391.000000,833.966553 
	C266.892334,833.966492 143.284668,833.966492 19.338840,833.966492 
	C19.338840,811.823608 19.338840,790.273132 19.338840,768.531006 
	C367.415497,768.531006 715.233032,768.531006 1063.525146,768.531006 
	C1063.525146,789.928894 1063.525146,811.479614 1063.525146,833.966553 
	C839.609192,833.966553 615.554565,833.966553 391.000000,833.966553 
M543.500000,793.007324 
	C522.687073,793.007324 501.874146,793.007324 481.061218,793.007324 
	C470.999115,793.007324 471.350372,793.024231 470.875275,802.888489 
	C470.617584,808.239502 472.519623,809.120483 477.352051,809.099304 
	C518.810547,808.917786 560.270264,808.995117 601.729614,808.995117 
	C612.064941,808.995117 611.789978,808.985229 612.153748,798.869141 
	C612.332947,793.887329 610.602905,792.844849 605.938477,792.901062 
	C585.461548,793.147583 564.979919,793.007324 543.500000,793.007324 
z"/>
<path fill="#64798A" opacity="1.000000" stroke="none" 
	d="
M121.943901,617.481384 
	C121.628990,615.732849 121.038818,613.984314 121.038322,612.235718 
	C120.996040,462.933777 121.024254,313.631805 120.895401,164.329971 
	C120.890915,159.132523 122.602341,157.918488 127.513214,157.937271 
	C171.003448,158.103622 214.494553,158.033890 257.985413,158.033890 
	C490.383179,158.033890 722.780945,158.033859 955.178711,158.034058 
	C963.966248,158.034073 963.966919,158.035187 963.966919,167.032593 
	C963.967102,300.171265 963.968506,433.309937 963.952332,566.448608 
	C963.952087,568.430725 963.731628,570.412903 963.080383,572.531616 
	C961.959473,572.141357 961.372009,571.614563 960.866699,570.617798 
	C960.948792,532.552734 960.948792,494.957611 960.948792,456.890259 
	C958.989563,457.014984 957.525696,456.952423 956.125000,457.220428 
	C930.071838,462.204803 907.608582,474.252136 888.446594,492.380157 
	C875.844360,504.302490 866.313538,518.483154 859.723145,534.582153 
	C858.919006,536.546570 858.593445,538.513794 855.300110,537.772888 
	C841.249268,534.611816 827.304260,535.451416 813.306580,538.865906 
	C776.432983,547.860474 745.477173,578.829895 743.119629,617.385498 
	C741.434631,618.118835 740.041748,618.640503 738.622009,619.074280 
	C705.600525,629.162720 682.331787,658.861572 681.404724,691.708496 
	C680.179260,691.329834 679.214600,691.046997 678.405029,690.524170 
	C662.979492,680.561829 646.319031,673.730347 628.116455,670.994507 
	C624.251465,670.413574 623.491516,668.002563 622.907043,664.902222 
	C615.866577,627.559570 608.498901,590.275696 601.815857,552.869446 
	C597.410461,528.211365 593.854004,503.398102 590.152832,478.619110 
	C588.088928,464.801941 586.506775,450.912811 584.606079,436.275024 
	C581.375671,442.035675 578.637878,447.121155 575.710632,452.095123 
	C569.850586,462.052216 563.886902,471.948303 557.662964,482.042175 
	C552.140625,489.823029 546.842346,497.378876 541.739258,505.064301 
	C539.576843,508.321045 538.021484,507.519806 536.342773,504.805328 
	C532.700073,498.914825 529.049133,493.029358 525.432068,486.817230 
	C515.843689,469.711334 506.224762,452.930084 496.519470,435.998138 
	C486.318451,515.567566 471.489502,594.147156 453.704437,672.188110 
	C438.421082,660.401978 421.605103,653.631836 402.280701,653.145996 
	C402.080414,650.814697 401.869812,648.859009 401.750336,646.897827 
	C400.183167,621.170410 388.269287,601.256897 367.066681,587.118713 
	C338.774841,568.253235 308.444397,566.741150 277.083099,578.284485 
	C273.443695,579.624023 271.679596,579.315308 269.526642,576.038635 
	C259.848907,561.309692 246.976929,549.881653 231.845306,540.991821 
	C199.290207,521.865723 164.508408,519.103577 128.270615,527.009949 
	C125.239449,527.671326 124.834015,529.347961 124.859703,531.976257 
	C124.962212,542.465515 124.932838,552.956482 124.894325,563.446655 
	C124.827721,581.590271 124.717979,599.733826 124.302490,617.773682 
	C123.300392,617.607117 122.622147,617.544250 121.943901,617.481384 
z"/>
<path fill="#FFFFFF" opacity="1.000000" stroke="none" 
	d="
M960.784607,571.087769 
	C961.372009,571.614563 961.959473,572.141357 962.793274,572.832092 
	C963.039673,620.464478 963.039673,667.932861 963.039673,715.987427 
	C960.948181,716.123657 959.204041,716.336243 957.459839,716.336548 
	C875.810669,716.352905 794.161438,716.357239 712.512268,716.310791 
	C710.586609,716.309692 708.661316,715.714172 706.359497,714.806763 
	C704.835144,712.824463 703.841309,711.259644 702.513245,710.066956 
	C695.635132,703.889771 688.671509,697.807739 681.737732,691.692505 
	C682.331787,658.861572 705.600525,629.162720 738.622009,619.074280 
	C740.041748,618.640503 741.434631,618.118835 743.512695,617.362244 
	C751.052490,616.063599 757.889709,614.523254 764.792786,614.125732 
	C779.210999,613.295410 793.219910,615.735962 806.677185,621.065735 
	C809.359436,622.127991 811.299072,622.455688 813.425659,619.458618 
	C831.247375,594.341125 855.292236,578.219116 885.058167,570.449890 
	C901.783875,566.084290 918.680786,564.518860 935.834167,566.954163 
	C944.178406,568.138855 952.469482,569.698059 960.784607,571.087769 
z"/>
<path fill="#FEFFFF" opacity="1.000000" stroke="none" 
	d="
M124.626335,617.877380 
	C124.717979,599.733826 124.827721,581.590271 124.894325,563.446655 
	C124.932838,552.956482 124.962212,542.465515 124.859703,531.976257 
	C124.834015,529.347961 125.239449,527.671326 128.270615,527.009949 
	C164.508408,519.103577 199.290207,521.865723 231.845306,540.991821 
	C246.976929,549.881653 259.848907,561.309692 269.526642,576.038635 
	C271.679596,579.315308 273.443695,579.624023 277.083099,578.284485 
	C308.444397,566.741150 338.774841,568.253235 367.066681,587.118713 
	C388.269287,601.256897 400.183167,621.170410 401.750336,646.897827 
	C401.869812,648.859009 402.080414,650.814697 402.280701,653.145996 
	C421.605103,653.631836 438.421082,660.401978 453.845581,672.469727 
	C457.690857,676.509094 461.391266,679.940430 464.321716,683.936340 
	C471.137695,693.230408 476.902161,703.094360 477.991180,714.959900 
	C449.316284,714.975708 420.641418,714.991516 391.214478,714.818359 
	C371.896301,685.125244 343.709198,681.229858 312.229553,685.313782 
	C311.879913,684.374695 311.201233,683.332092 311.134644,682.251831 
	C310.491333,671.813049 305.602966,662.927612 299.429810,655.197083 
	C277.700500,627.985535 248.812866,618.962158 215.148285,624.594788 
	C199.921646,627.142395 186.001419,633.494507 173.473404,642.750427 
	C172.341507,643.586731 169.558441,643.485901 168.331619,642.654907 
	C164.504364,640.062134 161.184540,636.733154 157.436295,634.008362 
	C147.445328,626.745300 136.914917,620.502136 124.626335,617.877380 
z"/>
<path fill="#C9E7E9" opacity="1.000000" stroke="none" 
	d="
M478.450989,715.062500 
	C476.902161,703.094360 471.137695,693.230408 464.321716,683.936340 
	C461.391266,679.940430 457.690857,676.509094 454.199127,672.539673 
	C471.489502,594.147156 486.318451,515.567566 496.519470,435.998138 
	C506.224762,452.930084 515.843689,469.711334 525.109985,486.909363 
	C524.181091,489.511780 523.249817,491.671112 523.085815,493.887238 
	C521.947510,509.265747 521.385559,524.698364 519.830383,540.031555 
	C517.994263,558.135376 515.460938,576.172485 513.015747,594.209473 
	C510.139679,615.425293 506.092133,636.417358 499.130676,656.715576 
	C496.242767,665.136047 492.658142,673.317688 489.649963,680.949402 
	C499.011597,686.686340 508.112915,692.399963 517.404541,697.785339 
	C518.563110,698.456848 521.179321,697.963745 522.357666,697.038818 
	C532.472351,689.099915 543.003174,681.814697 555.179565,677.479980 
	C564.458984,674.176514 574.005005,671.621765 583.542297,668.700378 
	C566.460022,607.828857 561.244080,544.981567 557.966003,481.869568 
	C563.886902,471.948303 569.850586,462.052216 575.710632,452.095123 
	C578.637878,447.121155 581.375671,442.035675 584.606079,436.275024 
	C586.506775,450.912811 588.088928,464.801941 590.152832,478.619110 
	C593.854004,503.398102 597.410461,528.211365 601.815857,552.869446 
	C608.498901,590.275696 615.866577,627.559570 622.907043,664.902222 
	C623.491516,668.002563 624.251465,670.413574 628.116455,670.994507 
	C646.319031,673.730347 662.979492,680.561829 678.405029,690.524170 
	C679.214600,691.046997 680.179260,691.329834 681.404724,691.708496 
	C688.671509,697.807739 695.635132,703.889771 702.513245,710.066956 
	C703.841309,711.259644 704.835144,712.824463 706.009521,714.557861 
	C685.149170,714.982666 664.203735,714.159912 643.398438,715.505310 
	C631.642517,716.265564 619.948120,717.126099 608.164673,716.952454 
	C565.080627,716.317566 521.995544,715.754944 478.450989,715.062500 
z"/>
<path fill="#C9E8EA" opacity="1.000000" stroke="none" 
	d="
M124.302490,617.773682 
	C136.914917,620.502136 147.445328,626.745300 157.436295,634.008362 
	C161.184540,636.733154 164.504364,640.062134 168.331619,642.654907 
	C169.558441,643.485901 172.341507,643.586731 173.473404,642.750427 
	C186.001419,633.494507 199.921646,627.142395 215.148285,624.594788 
	C248.812866,618.962158 277.700500,627.985535 299.429810,655.197083 
	C305.602966,662.927612 310.491333,671.813049 311.134644,682.251831 
	C311.201233,683.332092 311.879913,684.374695 312.229553,685.313782 
	C343.709198,681.229858 371.896301,685.125244 390.747955,714.828125 
	C390.407928,715.789307 389.913879,716.969482 389.126373,717.217529 
	C387.910583,717.600281 386.493988,717.358765 385.162537,717.358826 
	C299.581390,717.361023 214.000244,717.361206 128.419098,717.359863 
	C121.868370,717.359741 121.860191,717.353760 121.860466,710.906189 
	C121.861763,680.103638 121.867874,649.301086 121.908089,617.989990 
	C122.622147,617.544250 123.300392,617.607117 124.302490,617.773682 
z"/>
<path fill="#F3F3F3" opacity="1.000000" stroke="none" 
	d="
M544.000000,793.007324 
	C564.979919,793.007324 585.461548,793.147583 605.938477,792.901062 
	C610.602905,792.844849 612.332947,793.887329 612.153748,798.869141 
	C611.789978,808.985229 612.064941,808.995117 601.729614,808.995117 
	C560.270264,808.995117 518.810547,808.917786 477.352051,809.099304 
	C472.519623,809.120483 470.617584,808.239502 470.875275,802.888489 
	C471.350372,793.024231 470.999115,793.007324 481.061218,793.007324 
	C501.874146,793.007324 522.687073,793.007324 544.000000,793.007324 
z"/>
<path fill="#C9E8EA" opacity="1.000000" stroke="none" 
	d="
M960.866699,570.617798 
	C952.469482,569.698059 944.178406,568.138855 935.834167,566.954163 
	C918.680786,564.518860 901.783875,566.084290 885.058167,570.449890 
	C855.292236,578.219116 831.247375,594.341125 813.425659,619.458618 
	C811.299072,622.455688 809.359436,622.127991 806.677185,621.065735 
	C793.219910,615.735962 779.210999,613.295410 764.792786,614.125732 
	C757.889709,614.523254 751.052490,616.063599 743.792358,617.109619 
	C745.477173,578.829895 776.432983,547.860474 813.306580,538.865906 
	C827.304260,535.451416 841.249268,534.611816 855.300110,537.772888 
	C858.593445,538.513794 858.919006,536.546570 859.723145,534.582153 
	C866.313538,518.483154 875.844360,504.302490 888.446594,492.380157 
	C907.608582,474.252136 930.071838,462.204803 956.125000,457.220428 
	C957.525696,456.952423 958.989563,457.014984 960.948792,456.890259 
	C960.948792,494.957611 960.948792,532.552734 960.866699,570.617798 
z"/>
<path fill="#FEFFFF" opacity="1.000000" stroke="none" 
	d="
M557.662964,482.042175 
	C561.244080,544.981567 566.460022,607.828857 583.542297,668.700378 
	C574.005005,671.621765 564.458984,674.176514 555.179565,677.479980 
	C543.003174,681.814697 532.472351,689.099915 522.357666,697.038818 
	C521.179321,697.963745 518.563110,698.456848 517.404541,697.785339 
	C508.112915,692.399963 499.011597,686.686340 489.649963,680.949402 
	C492.658142,673.317688 496.242767,665.136047 499.130676,656.715576 
	C506.092133,636.417358 510.139679,615.425293 513.015747,594.209473 
	C515.460938,576.172485 517.994263,558.135376 519.830383,540.031555 
	C521.385559,524.698364 521.947510,509.265747 523.085815,493.887238 
	C523.249817,491.671112 524.181091,489.511780 525.079468,487.234009 
	C529.049133,493.029358 532.700073,498.914825 536.342773,504.805328 
	C538.021484,507.519806 539.576843,508.321045 541.739258,505.064301 
	C546.842346,497.378876 552.140625,489.823029 557.662964,482.042175 
z"/>
</svg>